<?xml version="1.0" standalone="no"?>
<!DOCTYPE svg PUBLIC "-//W3C//DTD SVG 20010904//EN"
 "http://www.w3.org/TR/2001/REC-SVG-20010904/DTD/svg10.dtd">
<svg version="1.0" xmlns="http://www.w3.org/2000/svg"
 width="400.000000pt" height="400.000000pt" viewBox="0 0 400.000000 400.000000"
 preserveAspectRatio="xMidYMid meet">
<metadata>
Created by potrace 1.11, written by Peter Selinger 2001-2013
</metadata>
<g transform="translate(0.000000,400.000000) scale(0.100000,-0.100000)"
fill="#000000" stroke="none">
<path d="M1820 3931 c-138 -38 -231 -111 -245 -192 -4 -21 -4 -42 -1 -47 3 -5
-34 -24 -81 -43 -91 -36 -126 -70 -115 -111 7 -27 -16 -40 -43 -22 -32 21 -74
8 -133 -43 -71 -61 -85 -83 -80 -135 l3 -43 -33 3 c-48 3 -68 -11 -116 -86
-52 -82 -59 -106 -41 -149 18 -42 12 -58 -21 -60 -39 -2 -53 -22 -80 -114 -30
-104 -30 -120 1 -157 30 -36 31 -48 6 -55 -41 -10 -57 -58 -54 -158 3 -97 16
-132 53 -144 25 -8 26 -30 0 -62 -25 -32 -25 -47 1 -143 22 -80 56 -130 87
-130 33 0 43 -20 26 -53 -20 -38 -13 -66 43 -154 47 -73 78 -95 128 -90 16 2
20 -4 21 -33 1 -65 4 -71 42 -105 20 -19 40 -35 45 -35 17 0 6 60 -13 72 -11
7 -20 16 -20 21 0 4 5 5 10 2 6 -4 17 -1 26 5 12 10 12 16 2 28 -11 13 -10 15
9 10 16 -4 23 0 27 16 8 29 -20 48 -64 44 l-35 -3 3 46 c3 40 -2 55 -44 121
-47 74 -86 110 -111 101 -20 -7 -25 21 -9 51 17 33 15 48 -20 157 -21 65 -30
82 -52 92 -39 17 -45 30 -22 48 30 26 37 56 34 150 -2 84 -20 139 -45 139 -17
0 -9 29 10 35 32 10 51 40 71 113 24 85 25 135 6 152 -19 15 -9 40 16 40 36 0
56 19 103 97 42 69 46 82 41 119 -6 50 -3 55 34 44 24 -7 36 -3 67 20 81 59
123 106 123 136 0 40 18 58 37 38 8 -8 25 -14 39 -14 39 0 174 61 191 86 l15
23 47 -23 c42 -22 97 -40 161 -53 14 -3 66 -6 115 -5 99 0 193 20 266 57 l47
24 15 -23 c16 -24 152 -86 190 -86 13 0 28 5 34 11 18 18 41 3 41 -26 0 -36
27 -70 100 -127 54 -41 65 -46 91 -38 16 4 32 6 35 3 3 -3 3 -25 -1 -48 -5
-39 -1 -51 42 -119 48 -78 68 -96 103 -96 26 0 33 -21 16 -45 -19 -26 -18 -66
7 -154 20 -71 47 -110 77 -111 13 0 17 -30 3 -30 -5 0 -17 -12 -26 -27 -35
-53 -22 -263 16 -263 21 0 7 -38 -16 -44 -30 -8 -41 -26 -71 -132 -24 -81 -24
-86 -8 -120 17 -35 15 -46 -10 -50 -41 -6 -59 -22 -106 -95 -46 -72 -51 -85
-48 -127 l3 -47 -32 3 c-18 2 -41 -2 -53 -8 -16 -9 -18 -15 -10 -30 6 -11 18
-20 28 -20 10 0 13 -3 7 -8 -26 -19 -13 -38 24 -32 9 1 8 -6 -6 -24 -13 -16
-19 -35 -16 -50 l5 -26 28 23 c39 31 53 60 54 110 1 41 2 42 32 39 41 -4 81
30 128 108 45 77 51 101 33 136 -18 36 -12 54 18 54 37 0 67 41 92 126 29 101
29 116 -3 153 -27 33 -28 33 31 75 16 12 21 29 25 93 8 121 1 154 -37 178 -38
23 -40 35 -14 59 32 29 34 68 11 153 -28 100 -41 120 -85 129 -39 7 -41 13
-21 52 20 40 11 74 -40 153 -47 72 -75 92 -123 87 -24 -3 -26 0 -23 31 6 57
-5 77 -79 141 -60 51 -76 60 -101 56 -16 -2 -35 -9 -41 -15 -18 -15 -35 0 -35
31 1 46 -26 71 -103 103 -41 16 -78 30 -84 30 -5 0 -8 11 -7 24 6 38 -26 107
-64 140 -81 71 -174 102 -324 106 -88 3 -131 0 -180 -14z m255 -76 c58 -11
129 -52 149 -86 30 -51 19 -119 -20 -119 -8 0 -14 -7 -14 -15 0 -40 -113 -75
-229 -71 -98 3 -179 31 -188 66 -3 11 -11 20 -18 20 -38 0 -50 81 -18 124 53
72 199 107 338 81z m-499 -248 c-20 -15 -11 -51 10 -43 8 3 14 3 14 0 0 -5
-124 -64 -135 -64 -3 0 -3 11 1 24 4 17 0 27 -13 34 -16 9 -12 13 27 30 67 28
73 30 94 31 19 1 19 0 2 -12z m898 -18 c50 -23 66 -38 38 -35 -13 1 -17 -6
-15 -26 l2 -27 -39 14 c-63 22 -126 59 -92 54 34 -6 45 22 15 41 -31 20 40 3
91 -21z m-1184 -134 c-15 -18 -3 -38 20 -32 11 3 17 0 14 -7 -5 -11 -107 -96
-116 -96 -3 0 -3 11 0 25 4 21 0 25 -19 25 -21 0 -17 6 31 50 30 27 61 50 69
50 11 0 11 -3 1 -15z m1450 -35 c45 -41 51 -50 33 -50 -16 0 -23 -7 -25 -25
-3 -25 -4 -25 -60 22 -42 35 -53 49 -40 51 28 6 36 20 22 37 -10 12 -10 15 1
15 8 -1 39 -23 69 -50z m-1678 -206 c-4 -25 -3 -26 22 -22 14 3 26 3 26 1 0
-2 -18 -31 -40 -64 -41 -60 -62 -76 -53 -39 4 16 0 20 -21 20 l-26 0 37 58
c29 46 49 71 59 72 1 0 -1 -12 -4 -26z m1867 -12 c14 -20 33 -51 43 -68 l18
-31 -25 5 c-20 3 -25 0 -25 -17 0 -13 -4 -19 -10 -16 -9 6 -80 111 -80 118 0
2 10 3 23 3 17 -1 22 4 21 22 -1 31 7 28 35 -16z m-2016 -272 c-6 -24 25 -40
38 -19 14 23 11 -9 -7 -72 -24 -86 -25 -87 -35 -60 -7 17 -15 22 -29 18 -11
-3 -20 -2 -20 1 0 16 34 129 43 140 13 17 16 15 10 -8z m2170 -67 c19 -71 21
-97 6 -71 -12 22 -39 12 -39 -15 0 -37 -17 -5 -38 71 -10 39 -16 72 -11 72 4
0 9 -5 11 -12 3 -7 12 -9 22 -5 13 5 17 14 13 29 -5 18 -4 19 7 7 7 -8 20 -42
29 -76z m-2208 -287 c8 3 15 10 15 16 0 5 4 7 8 4 7 -4 9 -135 3 -155 0 -3 -7
4 -15 14 -12 16 -16 17 -30 6 -18 -15 -18 -19 -20 74 -2 68 3 89 15 57 5 -14
14 -20 24 -16z m2249 -39 c-4 -113 -2 -103 -19 -81 -15 19 -15 19 -30 0 -18
-23 -18 -23 -19 72 -1 69 5 89 18 57 7 -19 36 -8 36 14 0 12 2 13 8 3 5 -7 8
-36 6 -65z m-2166 -344 c20 -72 19 -85 -7 -60 -10 10 -15 8 -26 -6 -12 -17
-16 -13 -34 48 -23 74 -28 113 -10 83 14 -25 39 -22 39 4 0 38 17 7 38 -69z
m2097 47 c8 0 19 8 25 18 14 22 5 -32 -17 -101 -14 -42 -17 -45 -28 -30 -10
14 -16 15 -27 5 -25 -20 -27 -4 -7 60 26 88 32 98 36 71 3 -13 11 -23 18 -23z
m-137 -282 c-3 -20 1 -23 25 -21 l29 2 -18 -27 c-68 -106 -66 -103 -79 -85 -8
10 -19 14 -30 10 -13 -6 -16 -3 -11 10 8 20 79 133 84 133 2 0 2 -10 0 -22z
m-1828 -50 c44 -67 48 -81 24 -71 -10 4 -22 -1 -30 -11 -12 -17 -16 -13 -49
38 -19 31 -37 62 -39 69 -1 6 -1 9 1 5 10 -17 43 -8 43 12 0 11 2 20 5 20 3 0
23 -28 45 -62z"/>
<path d="M1030 3483 c-37 -14 -131 -86 -168 -128 -44 -50 -98 -151 -108 -203
l-7 -34 53 33 c104 64 217 200 259 312 11 28 5 33 -29 20z"/>
<path d="M2900 3486 c0 -10 46 -106 68 -141 47 -74 206 -215 242 -215 33 0
-56 176 -125 246 -62 63 -185 136 -185 110z"/>
<path d="M1948 3352 c-42 -20 -77 -40 -78 -44 0 -7 156 65 168 77 13 12 -18 1
-90 -33z"/>
<path d="M2095 3368 c-4 -15 -5 -31 -2 -35 3 -5 9 -54 12 -108 10 -143 36
-176 116 -149 24 9 58 21 74 28 17 7 42 18 58 24 45 19 32 37 -47 69 -66 28
-76 29 -104 17 -29 -12 -35 -22 -45 -79 -7 -44 -26 21 -31 111 -3 49 -10 103
-15 119 l-8 30 -8 -27z m166 -200 c46 -13 49 -22 12 -36 -65 -24 -82 -24 -89
2 -11 46 8 55 77 34z"/>
<path d="M729 3347 c-49 -43 -84 -102 -110 -183 -27 -82 -28 -163 -4 -269 15
-68 19 -77 29 -61 24 41 62 80 115 118 31 22 71 57 89 77 35 38 88 138 79 147
-5 5 -177 -114 -205 -143 -15 -15 -26 -17 -18 -4 3 5 8 46 11 92 7 98 30 204
51 236 21 33 5 28 -37 -10z"/>
<path d="M3204 3353 c27 -53 37 -107 51 -268 l7 -70 -29 26 c-42 39 -181 139
-193 139 -15 0 44 -113 80 -154 17 -19 55 -51 85 -70 57 -39 115 -101 115
-126 1 -20 27 29 36 66 12 51 13 200 3 240 -19 71 -67 158 -110 202 -48 48
-66 54 -45 15z"/>
<path d="M1866 3356 c3 -9 11 -16 16 -16 13 0 5 23 -10 28 -7 2 -10 -2 -6 -12z"/>
<path d="M2148 3349 c-2 -8 1 -30 8 -49 7 -19 14 -28 15 -20 2 23 -2 54 -10
69 -7 11 -9 11 -13 0z"/>
<path d="M1401 3281 c-359 -364 -369 -958 -24 -1331 250 -271 621 -345 948
-190 494 234 664 907 350 1381 -53 78 -177 209 -200 209 -27 0 -23 -17 13 -56
91 -96 151 -210 189 -358 13 -52 12 -244 -2 -306 -59 -258 -235 -456 -482
-541 -158 -54 -368 -37 -524 42 -79 39 -120 69 -184 134 -67 66 -98 109 -138
192 -134 270 -89 603 111 823 28 30 48 58 45 63 -11 19 -39 2 -102 -62z m1335
-396 c18 -81 24 -253 12 -330 -38 -231 -171 -439 -361 -563 -134 -87 -269
-124 -427 -117 -158 6 -275 45 -400 133 -224 159 -350 415 -345 697 3 133 4
145 13 145 4 0 8 -39 9 -87 6 -252 136 -488 345 -623 56 -37 163 -85 210 -94
13 -3 44 -9 70 -14 67 -13 223 -7 294 12 379 100 622 475 558 861 -6 39 -14
79 -18 90 -4 12 -1 10 7 -5 8 -14 23 -61 33 -105z m-1523 10 c-3 -9 -8 -14
-10 -11 -3 3 -2 9 2 15 9 16 15 13 8 -4z m-8 -37 c-14 -41 -22 -224 -12 -273
3 -11 8 -40 12 -65 10 -61 53 -185 83 -240 170 -309 480 -472 807 -426 303 43
572 288 654 598 26 95 33 155 32 252 -1 44 1 77 5 73 4 -3 8 -65 11 -136 8
-263 -71 -484 -236 -663 -196 -213 -476 -306 -736 -246 -44 10 -88 20 -97 22
-35 9 -161 77 -206 112 -232 175 -361 439 -360 738 0 109 23 266 39 266 5 0 6
-6 4 -12z"/>
<path d="M1771 3328 c-1 -16 4 -28 9 -28 12 0 12 8 0 35 -8 18 -9 17 -9 -7z"/>
<path d="M2027 3288 c-5 -18 -8 -19 -22 -8 -8 7 -19 10 -23 6 -4 -4 0 -13 9
-19 9 -7 18 -18 20 -25 2 -7 12 3 21 23 8 19 12 37 8 40 -4 3 -10 -5 -13 -17z"/>
<path d="M1633 3281 c-9 -14 -9 -21 0 -30 14 -14 37 -14 37 -1 0 7 7 7 21 0
17 -9 23 -8 34 6 11 16 10 20 -4 30 -10 8 -20 9 -28 2 -8 -6 -18 -6 -30 1 -15
7 -22 5 -30 -8z"/>
<path d="M1793 3273 c-29 -15 -51 -29 -49 -31 2 -2 30 10 62 27 33 16 55 30
49 30 -5 1 -33 -11 -62 -26z"/>
<path d="M1920 3272 c0 -14 6 -22 16 -22 14 0 15 3 3 18 -7 9 -15 19 -16 21
-2 2 -3 -5 -3 -17z"/>
<path d="M2198 3264 c-39 -21 -35 -28 5 -8 37 19 44 24 31 24 -5 -1 -21 -8
-36 -16z"/>
<path d="M1840 3256 c0 -16 18 -31 27 -22 3 3 -2 12 -11 21 -14 14 -16 14 -16
1z"/>
<path d="M2276 3251 c-5 -7 -3 -18 3 -24 14 -14 20 -6 11 17 -5 15 -9 16 -14
7z"/>
<path d="M1846 3220 c-22 -4 -46 -16 -53 -26 -13 -17 -12 -19 9 -22 60 -9 54
-45 -8 -57 -43 -8 -69 11 -78 56 -11 56 -68 20 -99 -63 -3 -10 -11 -18 -16
-18 -12 0 -34 77 -26 90 3 6 1 10 -6 10 -11 0 -6 -79 7 -115 12 -30 41 -15 65
32 30 59 45 64 64 21 7 -19 20 -40 28 -47 19 -15 72 -6 115 21 30 18 34 19 45
5 7 -9 24 -21 39 -26 22 -8 32 -6 53 11 23 18 30 19 50 8 31 -17 55 -6 55 24
0 62 -35 75 -70 27 -25 -36 -52 -46 -80 -31 -27 14 -25 28 4 36 23 5 42 31 32
41 -14 14 -96 28 -130 23z m52 -39 c11 -7 11 -9 -1 -14 -16 -6 -27 0 -27 15 0
10 11 10 28 -1z"/>
<path d="M1593 3159 c-1 -10 5 -19 13 -19 17 0 18 14 1 28 -10 8 -13 6 -14 -9z"/>
<path d="M1663 3104 c-7 -19 11 -41 21 -25 4 6 2 11 -4 11 -7 0 -10 7 -6 15 3
8 3 15 0 15 -2 0 -7 -7 -11 -16z"/>
<path d="M3405 3090 c13 -61 8 -160 -14 -275 -6 -27 -13 -68 -16 -89 -5 -38
-15 -62 -15 -38 0 6 -24 39 -52 74 -29 35 -62 74 -73 87 -53 64 -74 86 -78 81
-9 -10 23 -135 47 -185 14 -28 50 -79 80 -114 47 -55 71 -97 93 -171 11 -38
107 156 123 251 22 131 -9 294 -71 374 l-31 40 7 -35z"/>
<path d="M532 3076 c-70 -103 -93 -284 -53 -418 19 -60 93 -208 105 -208 2 0
11 24 21 53 17 53 37 83 94 147 56 62 111 192 111 263 l0 29 -27 -34 c-15 -18
-30 -35 -33 -38 -4 -3 -37 -43 -74 -90 -38 -47 -71 -88 -75 -93 -4 -4 -8 12
-9 35 -2 24 -7 59 -12 78 -23 90 -32 242 -16 288 11 33 -6 27 -32 -12z"/>
<path d="M2070 3070 l-25 -21 28 12 c15 7 27 16 27 21 0 11 -1 10 -30 -12z"/>
<path d="M2324 3075 c-7 -18 3 -35 21 -35 18 0 28 32 13 42 -19 11 -28 10 -34
-7z"/>
<path d="M1955 3018 c-4 -13 -7 -26 -7 -29 1 -11 12 -133 17 -199 13 -160 13
-179 2 -188 -18 -14 -56 -21 -62 -11 -3 4 -13 5 -22 2 -29 -11 -5 14 26 27 37
15 47 46 19 61 -32 17 -131 23 -171 10 -24 -8 -38 -21 -45 -40 -9 -26 -8 -27
17 -23 14 2 34 -3 43 -10 17 -12 16 -16 -16 -50 l-34 -37 -30 30 c-42 41 -56
23 -40 -54 14 -66 8 -76 -64 -113 -58 -29 -92 -30 -118 -4 -29 29 -29 67 1
137 22 51 23 57 9 48 -11 -7 -13 4 -12 45 1 22 0 23 -9 7 -6 -10 -9 -35 -7
-55 3 -21 -3 -57 -14 -84 -50 -133 15 -204 136 -148 23 12 56 34 73 50 l29 28
0 -61 c-1 -67 17 -108 60 -140 76 -56 232 1 284 104 20 38 42 50 55 29 10 -16
42 -12 84 10 45 22 151 126 151 147 0 24 17 5 23 -25 3 -16 17 -34 32 -42 23
-12 30 -12 53 1 15 8 35 30 45 49 20 39 18 108 -7 325 -7 61 -11 112 -10 114
6 7 61 -120 80 -184 10 -36 18 -93 18 -140 0 -70 -4 -87 -29 -134 -49 -89
-132 -148 -290 -207 -93 -34 -91 -37 15 -34 101 2 218 76 275 174 86 150 75
347 -33 570 l-28 59 -19 -39 c-17 -37 -22 -118 -10 -169 3 -11 -2 -6 -11 11
-9 17 -25 36 -36 43 -38 24 -93 -39 -80 -91 5 -20 34 -31 74 -30 16 0 28 -5
28 -12 0 -13 -77 -93 -83 -85 -2 2 -14 31 -27 64 -13 33 -28 66 -34 72 -20 23
-18 -36 4 -100 12 -33 20 -61 18 -62 -15 -12 -51 -25 -56 -21 -3 4 -6 28 -8
54 -2 55 -13 169 -20 206 -3 19 -1 24 10 20 12 -5 10 8 -7 61 -19 58 -23 64
-34 49 -7 -10 -11 -32 -8 -49 6 -39 13 -116 21 -235 3 -52 8 -98 11 -102 2 -5
-3 -8 -11 -8 -29 0 -49 46 -43 98 l5 47 -12 -40 -13 -40 -6 55 c-18 158 -20
193 -7 185 14 -8 10 9 -17 84 -32 89 -40 -10 -17 -204 11 -89 12 -273 2 -320
-14 -63 -24 -75 -32 -38 -9 37 -52 63 -111 66 -54 2 -61 29 -8 33 47 4 70 20
84 61 11 35 11 56 -7 263 -4 47 -2 61 5 50 6 -8 11 -10 11 -4 0 12 -40 134
-45 134 -1 0 -6 -10 -10 -22z m415 -199 c0 -5 -9 -9 -20 -9 -19 0 -26 11 -14
23 8 8 34 -3 34 -14z m64 -84 c24 -218 21 -245 -34 -245 -35 0 -48 16 -65 80
-12 44 -12 52 1 57 31 12 84 95 84 131 0 49 7 37 14 -23z m-582 -97 c-9 -9
-15 -9 -24 0 -9 9 -7 12 12 12 19 0 21 -3 12 -12z m276 -50 c10 -19 26 -34 38
-36 40 -6 12 -58 -56 -105 -45 -32 -45 -32 -15 96 9 37 13 73 9 80 -4 6 -4 9
0 5 4 -3 15 -21 24 -40z m172 -7 c0 -5 3 -16 6 -24 7 -18 -62 -88 -125 -129
-63 -40 -68 -35 -22 20 22 26 43 59 46 74 8 33 95 86 95 59z m-430 -58 c0 -14
-62 -17 -94 -4 -17 7 -17 9 9 28 27 19 30 19 57 4 15 -9 28 -22 28 -28z m-170
-40 c0 -10 -4 -24 -9 -32 -6 -9 -8 -4 -7 18 1 32 16 45 16 14z m109 -18 c9 -2
23 -4 32 -4 11 -1 18 -14 23 -39 3 -21 14 -46 23 -54 21 -19 81 -37 103 -31 8
2 -3 -12 -24 -31 -89 -81 -226 -72 -255 17 -13 38 -9 89 10 130 11 24 17 27
42 21 16 -3 37 -8 46 -9z m179 -38 c26 -24 14 -38 -26 -31 -36 7 -60 22 -72
45 -11 19 -9 20 32 14 24 -4 53 -16 66 -28z"/>
<path d="M2404 2596 l-6 -26 -19 23 c-24 29 -26 1 -1 -30 l17 -22 16 35 c9 19
13 37 8 40 -5 2 -11 -7 -15 -20z"/>
<path d="M2110 2515 c0 -8 7 -15 15 -15 8 0 15 4 15 9 0 5 -7 11 -15 15 -9 3
-15 0 -15 -9z"/>
<path d="M1761 2433 c-1 -24 14 -39 24 -23 3 5 2 10 -4 10 -5 0 -12 8 -14 18
-4 13 -5 12 -6 -5z"/>
<path d="M1785 2357 c-7 -25 -8 -26 -20 -10 -21 28 -29 8 -9 -22 l17 -26 14
32 c7 18 12 37 9 43 -2 6 -7 -2 -11 -17z"/>
<path d="M1832 2278 c5 -15 28 -23 28 -10 0 5 -7 13 -16 16 -10 4 -14 1 -12
-6z"/>
<path d="M2390 3033 c-8 -3 -33 -18 -55 -33 -22 -15 -49 -30 -59 -34 -10 -3
-16 -9 -13 -12 5 -5 147 74 147 82 0 4 1 5 -20 -3z"/>
<path d="M1472 3018 c-16 -16 -15 -33 2 -47 10 -9 16 -8 26 4 10 12 16 13 27
3 11 -9 18 -8 31 6 16 16 16 18 -2 31 -14 11 -23 12 -33 4 -9 -8 -17 -8 -26 0
-10 8 -17 7 -25 -1z"/>
<path d="M1640 3005 c-25 -13 -41 -24 -37 -25 11 0 87 39 87 45 0 7 0 7 -50
-20z"/>
<path d="M1757 2993 l4 -28 -16 25 c-13 22 -15 22 -14 5 2 -36 -1 -39 -17 -19
-14 18 -15 18 -8 -6 3 -14 8 -27 10 -29 7 -8 59 17 58 27 -1 7 -2 21 -2 32 -1
11 -6 20 -11 20 -4 0 -6 -12 -4 -27z"/>
<path d="M2115 3000 c-8 -12 2 -30 17 -30 7 0 7 4 -1 13 -6 8 -8 17 -4 20 3 4
4 7 0 7 -3 0 -9 -4 -12 -10z"/>
<path d="M1835 2980 c3 -5 10 -10 16 -10 5 0 9 5 9 10 0 6 -7 10 -16 10 -8 0
-12 -4 -9 -10z"/>
<path d="M2381 2943 c-1 -24 14 -39 24 -23 3 5 2 10 -4 10 -5 0 -12 8 -14 18
-4 13 -5 12 -6 -5z"/>
<path d="M1518 2903 c-14 -16 -35 -47 -47 -70 -15 -29 -28 -43 -41 -43 -25 0
-44 44 -35 80 5 19 4 22 -6 13 -17 -17 -3 -97 22 -119 26 -23 46 -12 76 42 48
85 72 96 93 44 25 -60 84 -73 142 -30 32 24 37 24 52 6 6 -8 23 -18 38 -21 23
-6 30 -2 47 25 19 32 19 75 0 95 -9 9 -10 4 -13 -47 -1 -22 -5 -23 -33 -16
-15 4 -23 14 -23 27 0 28 -5 27 -53 -14 -59 -51 -108 -41 -143 27 -18 35 -43
35 -76 1z"/>
<path d="M1650 2910 c0 -11 4 -20 9 -20 17 0 19 15 5 28 -12 11 -14 9 -14 -8z"/>
<path d="M2270 2880 l-2 -35 -14 30 -15 30 4 -27 c5 -32 0 -35 -19 -10 -12 16
-13 15 -9 -6 7 -37 13 -42 45 -30 31 10 33 16 20 58 -7 23 -8 22 -10 -10z"/>
<path d="M1430 2870 c0 -11 4 -20 9 -20 17 0 19 15 5 28 -12 11 -14 9 -14 -8z"/>
<path d="M2112 2831 c2 -7 7 -12 11 -12 12 1 9 15 -3 20 -7 2 -11 -2 -8 -8z"/>
<path d="M1880 2805 c-10 -12 -10 -18 0 -30 12 -14 15 -14 31 1 15 14 16 18 4
30 -17 18 -20 17 -35 -1z"/>
<path d="M1763 2750 c-24 -10 -43 -21 -43 -24 0 -6 22 2 69 25 48 24 27 23
-26 -1z"/>
<path d="M1636 2744 c-5 -13 -9 -15 -18 -6 -28 28 -63 -3 -38 -33 10 -12 16
-13 27 -3 11 9 19 9 32 1 14 -9 20 -7 30 9 7 11 11 21 9 22 -2 1 -10 7 -19 14
-14 10 -18 10 -23 -4z"/>
<path d="M1470 2705 c-25 -13 -42 -24 -38 -24 11 -1 98 38 98 44 0 8 -12 4
-60 -20z"/>
<path d="M410 2630 c-28 -97 -10 -236 47 -356 28 -60 168 -214 195 -214 9 0
13 19 14 68 1 52 8 85 34 147 30 70 34 92 36 180 2 109 -12 186 -27 150 -21
-51 -98 -273 -104 -300 -6 -27 -7 -28 -17 -10 -6 11 -34 63 -64 115 -56 100
-80 159 -93 225 l-8 40 -13 -45z"/>
<path d="M3540 2670 c-1 -3 -3 -22 -6 -43 -5 -49 -44 -137 -111 -251 -62 -105
-60 -103 -61 -74 0 32 -108 323 -115 311 -12 -19 -23 -118 -20 -174 1 -33 17
-96 38 -155 26 -72 37 -117 38 -165 l2 -67 30 21 c42 30 121 112 150 155 70
106 104 301 71 402 -8 25 -15 43 -16 40z"/>
<path d="M1583 2626 c-61 -31 -64 -40 -5 -15 29 12 52 26 52 30 0 5 -1 8 -2 8
-2 -1 -22 -11 -45 -23z"/>
<path d="M2014 2587 c-6 -7 -8 -21 -5 -31 6 -16 8 -16 26 4 16 18 17 20 2 14
-13 -5 -16 -2 -11 10 7 19 3 20 -12 3z"/>
<path d="M2010 2520 c0 -7 24 -20 36 -20 13 0 1 19 -16 23 -11 3 -20 2 -20 -3z"/>
<path d="M1590 2490 c0 -32 23 -42 33 -16 4 11 1 13 -10 9 -13 -5 -15 -2 -11
15 4 12 2 22 -3 22 -5 0 -9 -13 -9 -30z"/>
<path d="M1546 2484 c-4 -9 -4 -19 -1 -22 2 -3 7 3 11 12 4 9 4 19 1 22 -2 3
-7 -3 -11 -12z"/>
<path d="M1500 2465 c0 -8 4 -15 9 -15 5 0 13 -10 17 -22 7 -22 7 -22 14 -4 4
12 0 27 -9 38 -19 22 -31 23 -31 3z"/>
<path d="M2292 2383 c-9 -27 -9 -28 -16 -5 -8 25 -26 30 -26 7 0 -8 4 -15 8
-15 5 0 13 -9 18 -20 8 -17 11 -15 26 20 9 22 13 40 8 40 -5 0 -13 -12 -18
-27z"/>
<path d="M1611 2298 c-1 -28 12 -37 24 -18 3 6 2 10 -4 10 -5 0 -12 8 -14 18
-3 10 -5 6 -6 -10z"/>
<path d="M2190 2303 c0 -13 5 -23 10 -23 13 0 13 11 0 30 -8 12 -10 11 -10 -7z"/>
<path d="M3700 2270 c0 -17 10 -20 135 -36 17 -2 56 -9 89 -15 32 -5 61 -8 64
-4 12 12 -25 33 -68 39 -100 13 -137 18 -177 26 -37 6 -43 5 -43 -10z"/>
<path d="M134 2263 c-32 -3 -43 -9 -47 -24 -7 -27 -1 -303 8 -354 11 -63 15
-75 30 -75 21 0 44 28 39 48 -6 22 27 102 50 121 14 12 16 11 16 -8 0 -12 -4
-31 -10 -41 -7 -13 -6 -19 4 -23 18 -7 32 9 40 48 15 70 -55 87 -94 22 -19
-31 -20 -31 -21 -7 0 14 -2 34 -4 44 -4 21 -8 143 -6 189 1 22 6 27 26 27 18
0 25 5 25 20 0 11 -3 19 -7 18 -5 -1 -27 -3 -49 -5z"/>
<path d="M427 2240 c-41 -149 77 -397 238 -498 42 -27 129 -72 138 -72 3 0 2
12 -3 28 -18 57 -19 114 -2 209 24 129 16 222 -25 322 -18 43 -27 32 -41 -49
-6 -36 -18 -105 -27 -155 -9 -49 -15 -100 -12 -112 2 -13 0 -23 -4 -23 -5 0
-9 3 -9 8 0 4 -19 27 -41 52 -133 148 -186 224 -198 283 -7 31 -7 32 -14 7z"/>
<path d="M3202 2243 c-46 -90 -58 -216 -32 -350 17 -87 15 -154 -6 -206 -6
-18 -5 -18 32 -2 104 43 206 127 261 213 68 106 105 249 85 332 l-9 35 -7 -34
c-8 -33 -55 -121 -79 -146 -7 -7 -48 -54 -91 -104 -43 -50 -80 -91 -81 -91 -1
0 -1 12 0 28 1 15 -7 72 -17 127 -9 55 -20 118 -24 140 -3 22 -7 45 -8 52 -4
22 -14 25 -24 6z"/>
<path d="M2013 2209 c-29 -17 -53 -32 -53 -35 0 -6 34 8 50 21 8 7 25 16 38
19 12 4 22 12 22 17 0 12 3 13 -57 -22z"/>
<path d="M3703 2207 c-8 -14 15 -25 72 -33 68 -9 95 -20 95 -40 0 -12 -6 -15
-22 -11 -80 18 -90 19 -86 6 5 -14 56 -29 191 -54 l37 -7 0 50 0 51 -47 7
c-27 3 -90 14 -141 24 -58 11 -95 13 -99 7z m247 -83 c0 -22 -26 -16 -27 5 -1
14 3 18 13 14 8 -3 14 -11 14 -19z"/>
<path d="M2061 2158 c-1 -28 12 -37 24 -18 3 6 2 10 -4 10 -5 0 -12 8 -14 18
-3 10 -5 6 -6 -10z"/>
<path d="M3696 2151 c-7 -10 27 -51 42 -51 5 0 7 14 4 30 -4 29 -22 43 -22 18
0 -10 -3 -9 -9 1 -6 9 -11 10 -15 2z"/>
<path d="M14 2105 c-4 -8 0 -23 7 -32 11 -13 11 -17 2 -20 -19 -7 -16 -40 3
-47 9 -4 23 -1 30 5 12 10 12 15 0 34 -12 19 -12 23 2 32 14 9 15 12 3 27 -17
20 -40 21 -47 1z"/>
<path d="M3815 2058 c-2 -7 -6 -29 -7 -48 l-3 -35 -23 36 c-13 22 -32 39 -47
41 -25 5 -25 5 8 -41 18 -25 36 -51 40 -57 4 -7 -19 -4 -58 7 -53 14 -65 15
-65 4 0 -9 33 -23 88 -40 48 -14 100 -30 116 -36 17 -5 33 -6 37 -2 4 5 9 43
11 85 l4 77 -29 11 c-40 14 -67 13 -72 -2z m47 -40 c8 -22 -4 -98 -13 -92 -11
6 -9 104 2 104 4 0 9 -6 11 -12z"/>
<path d="M846 1863 c9 -87 53 -289 74 -344 l20 -49 -73 49 c-39 27 -104 69
-142 94 -78 50 -137 104 -167 151 l-20 31 5 -55 c6 -66 26 -117 72 -181 61
-86 149 -155 245 -193 49 -20 221 -58 228 -51 3 3 -7 31 -21 62 -14 32 -33 96
-42 143 -31 171 -37 192 -71 258 -28 56 -94 142 -109 142 -3 0 -2 -26 1 -57z"/>
<path d="M3088 1890 c-75 -82 -108 -159 -138 -325 -11 -65 -34 -150 -50 -187
-24 -57 -26 -68 -12 -64 9 3 38 7 64 11 61 7 152 37 218 70 75 38 185 151 221
228 29 64 52 193 26 152 -30 -49 -130 -135 -217 -189 -52 -32 -113 -73 -135
-90 -31 -25 -37 -27 -31 -11 43 103 109 435 87 435 -3 0 -18 -14 -33 -30z"/>
<path d="M3761 1839 c-21 -20 -22 -23 -6 -31 12 -7 22 -5 35 7 30 27 52 12 45
-28 -6 -30 -4 -35 16 -40 25 -7 39 6 39 35 0 9 3 23 6 31 17 45 -92 66 -135
26z"/>
<path d="M1311 1768 c-16 -35 -34 -81 -41 -102 -13 -40 -22 -189 -14 -211 4
-9 23 -8 74 4 l70 17 58 -56 c74 -70 147 -109 293 -154 120 -37 170 -66 209
-124 l23 -32 24 36 c33 47 102 90 188 115 173 50 292 115 347 189 l20 27 69
-15 c38 -8 72 -12 75 -9 8 8 8 131 1 167 -13 62 -22 89 -50 145 -16 33 -31 61
-32 63 -1 1 -31 -26 -66 -60 -45 -44 -101 -84 -186 -132 -68 -38 -123 -70
-123 -72 0 -1 16 -12 35 -24 19 -12 35 -25 35 -28 0 -12 -38 -31 -80 -41 -61
-14 -73 3 -68 100 l3 78 -152 -4 c-83 -2 -165 0 -181 4 -44 13 -52 3 -47 -64
5 -72 -1 -112 -19 -118 -20 -8 -82 8 -113 28 l-26 18 36 22 c21 12 40 25 43
28 3 3 -18 18 -48 32 -149 75 -308 192 -308 226 0 5 -5 9 -10 9 -6 0 -23 -28
-39 -62z"/>
<path d="M110 1716 c-60 -27 -74 -37 -72 -52 5 -28 6 -28 57 -5 33 15 47 17
49 8 2 -7 14 -52 26 -102 34 -134 98 -285 120 -285 4 0 45 27 91 59 139 98
131 91 119 106 -9 11 -28 2 -96 -46 -47 -32 -86 -59 -88 -59 -2 0 -9 13 -14
30 -9 25 -8 32 10 44 14 10 18 21 14 32 -5 13 -9 15 -18 6 -20 -20 -35 -14
-46 17 -8 24 -7 32 5 43 26 22 51 88 46 122 -8 53 -18 51 -26 -7 -6 -43 -35
-93 -47 -81 -4 5 -17 41 -29 79 -18 61 -19 71 -6 81 21 15 19 44 -2 43 -10 0
-52 -15 -93 -33z"/>
<path d="M3760 1720 c0 -11 6 -20 14 -20 20 0 37 -25 30 -44 -3 -9 -17 -16
-29 -16 -29 0 -55 -25 -55 -51 0 -23 18 -61 34 -71 8 -5 7 -11 -2 -20 -9 -9
-15 -9 -24 0 -7 7 -18 12 -25 12 -20 0 -15 -38 7 -50 22 -12 25 -27 10 -50 -7
-12 -17 -9 -55 19 -38 27 -49 31 -56 20 -12 -20 -11 -27 6 -37 12 -6 13 -14 7
-32 -14 -37 -3 -67 40 -106 l40 -36 23 40 c12 22 38 78 56 123 18 46 44 93 58
105 23 20 26 36 19 109 -1 11 2 34 6 50 6 29 4 32 -39 53 -56 27 -65 27 -65 2z
m48 -147 c-4 -22 -22 -20 -26 1 -2 10 3 16 13 16 10 0 15 -7 13 -17z m-119
-235 c-7 -13 -14 -17 -20 -11 -14 14 0 43 17 36 10 -4 11 -10 3 -25z"/>
<path d="M3896 1643 c-4 -9 0 -23 9 -32 15 -15 18 -14 30 3 11 14 12 23 4 33
-16 18 -36 16 -43 -4z"/>
<path d="M1030 1634 c0 -18 124 -317 144 -346 40 -59 40 -61 20 -54 -21 6 -55
12 -129 21 -133 16 -260 57 -302 97 -34 32 -39 15 -10 -34 106 -179 359 -254
613 -183 l51 15 -47 48 c-28 29 -54 69 -65 98 -39 110 -86 194 -139 246 -50
49 -136 108 -136 92z"/>
<path d="M2879 1604 c-104 -69 -146 -127 -210 -286 -19 -48 -46 -93 -73 -122
l-42 -46 30 -9 c98 -30 239 -42 316 -27 132 27 266 113 313 201 31 60 29 67
-11 36 -58 -45 -171 -81 -307 -96 -58 -7 -102 -14 -129 -22 -15 -4 -12 3 13
35 29 35 167 360 157 369 -2 2 -27 -13 -57 -33z"/>
<path d="M3882 1568 c2 -15 10 -23 23 -23 13 0 21 8 23 23 3 18 -1 22 -23 22
-22 0 -26 -4 -23 -22z"/>
<path d="M3533 1503 c-18 -7 -16 -42 3 -50 8 -3 23 1 31 10 13 13 14 19 3 31
-13 17 -17 18 -37 9z"/>
<path d="M3491 1437 c-15 -19 9 -50 32 -41 21 8 22 40 1 48 -21 8 -20 8 -33
-7z"/>
<path d="M3833 1424 c-3 -8 2 -23 11 -32 15 -15 17 -15 33 0 13 14 14 20 3 32
-16 20 -39 20 -47 0z"/>
<path d="M143 1409 c-17 -17 -4 -39 24 -39 20 0 24 4 21 22 -3 26 -28 34 -45
17z"/>
<path d="M435 1324 c-55 -41 -107 -80 -115 -87 -8 -7 -38 -29 -67 -50 -46 -34
-51 -41 -41 -57 7 -11 17 -16 23 -11 286 219 315 243 315 256 0 29 -19 21
-115 -51z"/>
<path d="M3430 1366 c0 -7 64 -67 143 -132 78 -65 148 -124 156 -132 7 -7 18
-11 25 -9 32 11 8 40 -111 134 -70 56 -141 113 -158 127 -33 29 -55 33 -55 12z"/>
<path d="M3813 1373 c-18 -7 -16 -28 3 -43 12 -11 18 -10 31 3 13 13 14 19 3
31 -13 17 -17 18 -37 9z"/>
<path d="M3403 1314 c-4 -11 12 -32 53 -68 32 -29 74 -66 92 -82 31 -28 32
-30 16 -52 -14 -20 -17 -21 -27 -7 -13 17 -50 27 -72 19 -7 -3 -18 -19 -24
-36 -12 -34 -2 -61 29 -78 17 -9 18 -14 8 -30 -11 -18 -14 -18 -30 -3 -16 14
-18 14 -24 -1 -5 -12 7 -32 38 -64 25 -26 60 -64 78 -84 31 -36 50 -41 50 -15
0 7 -17 33 -39 57 l-39 44 37 51 c57 78 103 154 99 163 -1 4 -39 39 -83 77
-44 38 -93 82 -110 97 -35 32 -43 34 -52 12z m113 -245 c10 -17 -13 -36 -27
-22 -12 12 -4 33 11 33 5 0 12 -5 16 -11z"/>
<path d="M585 1183 c-27 -25 -83 -77 -122 -115 -40 -39 -79 -68 -86 -65 -7 2
-19 16 -26 31 -13 23 -12 28 2 44 19 21 22 38 7 47 -11 7 -100 -62 -100 -77 0
-12 70 -127 82 -134 5 -3 29 13 54 36 25 23 47 40 49 38 1 -1 39 -48 83 -103
44 -55 104 -124 134 -153 l55 -54 92 132 c51 72 94 137 97 144 3 7 -2 18 -9
25 -12 9 -16 8 -20 -3 -3 -8 -38 -58 -77 -111 l-72 -97 -24 22 c-23 22 -23 24
-7 51 13 23 15 31 5 41 -9 9 -17 7 -33 -11 l-21 -23 -29 28 -28 27 29 27 c17
16 30 33 30 39 0 19 -23 60 -36 65 -19 7 -60 -9 -71 -29 -8 -13 -12 -12 -32 9
l-22 24 90 87 c83 81 99 105 68 105 -7 0 -34 -21 -62 -47z m21 -204 c8 -14
-18 -31 -30 -19 -9 9 0 30 14 30 5 0 12 -5 16 -11z"/>
<path d="M677 1144 c-13 -13 -7 -42 10 -48 21 -8 36 6 31 30 -3 19 -29 30 -41
18z"/>
<path d="M1558 1135 c-2 -2 -24 -6 -51 -9 -26 -4 -107 -25 -180 -48 -117 -37
-144 -42 -234 -42 -57 -1 -103 -4 -103 -8 0 -13 85 -65 132 -81 65 -23 130
-31 223 -30 97 1 163 19 315 86 116 50 185 66 237 52 l28 -8 -25 -11 c-57 -26
-202 -130 -275 -198 -24 -22 -28 -31 -19 -45 18 -29 30 -25 95 37 85 81 172
147 237 179 l53 26 72 -37 c44 -23 114 -75 180 -134 98 -87 110 -95 124 -81 9
9 13 22 10 30 -8 21 -156 139 -238 189 -38 24 -69 47 -69 52 0 4 30 6 68 4 53
-3 90 -14 177 -52 164 -72 223 -88 340 -88 55 0 122 5 150 11 74 18 185 77
185 100 0 3 -44 5 -97 3 -103 -3 -117 0 -353 74 -135 42 -336 39 -484 -6 -63
-20 -70 -20 -114 -6 -90 29 -148 38 -264 41 -65 1 -119 1 -120 0z"/>
<path d="M720 1090 c-6 -11 -8 -25 -5 -30 10 -16 42 -12 49 6 8 22 8 22 -14
34 -15 8 -21 6 -30 -10z"/>
<path d="M754 975 c-4 -9 -2 -21 4 -27 16 -16 47 -5 47 17 0 26 -42 34 -51 10z"/>
<path d="M3094 935 c-3 -14 -11 -22 -19 -19 -19 8 -38 -29 -23 -44 19 -19 37
-14 44 12 3 14 11 23 18 20 15 -6 40 21 32 34 -3 5 -15 12 -26 15 -15 4 -22
-1 -26 -18z"/>
<path d="M899 856 c-26 -39 -87 -130 -137 -201 -77 -112 -88 -133 -77 -148 16
-22 10 -29 165 206 106 161 121 190 109 201 -12 12 -21 3 -60 -58z"/>
<path d="M3364 917 c-3 -10 0 -24 7 -33 10 -12 9 -18 -4 -31 -15 -15 -18 -14
-36 8 -18 22 -20 22 -26 6 -4 -10 0 -27 8 -41 15 -22 15 -25 -4 -42 -13 -11
-23 -14 -27 -8 -50 72 -75 104 -82 104 -18 0 -21 -22 -6 -45 14 -21 14 -25 -6
-50 -27 -35 -26 -84 4 -130 13 -19 26 -35 29 -35 8 0 160 147 199 193 l32 37
-40 42 c-35 35 -42 39 -48 25z m-125 -196 c-30 -24 -35 -20 -19 19 12 28 15
30 28 16 14 -13 13 -17 -9 -35z"/>
<path d="M2972 883 c-9 -3 -1 -26 29 -81 23 -43 56 -101 72 -130 20 -36 26
-57 19 -64 -11 -11 -14 -8 -90 127 -69 123 -75 130 -89 113 -9 -10 5 -42 62
-143 l74 -130 -22 -18 c-16 -14 -22 -16 -25 -5 -15 57 -40 73 -84 51 -22 -11
-28 -20 -28 -48 0 -18 6 -40 14 -48 11 -11 12 -17 3 -26 -6 -6 -14 -11 -18
-11 -3 0 -35 67 -70 150 -35 83 -66 150 -69 150 -3 0 -11 -4 -19 -9 -11 -7 -3
-34 43 -142 31 -74 61 -142 66 -151 8 -13 5 -20 -11 -29 -18 -9 -25 -7 -46 15
-13 14 -33 26 -43 26 -25 0 -60 -34 -60 -58 0 -21 30 -112 36 -112 3 0 18 7
35 15 16 9 34 13 39 10 4 -3 18 -34 30 -70 22 -66 26 -71 48 -57 9 6 6 23 -13
72 -14 35 -25 69 -25 74 0 6 28 26 63 45 86 46 277 174 277 185 0 8 -181 307
-184 305 0 0 -7 -3 -14 -6z m-14 -346 c2 -10 -3 -17 -12 -17 -10 0 -16 9 -16
21 0 24 23 21 28 -4z m-204 -127 c-14 -14 -36 4 -28 24 6 16 8 16 22 2 11 -10
13 -19 6 -26z"/>
<path d="M1061 643 l-83 -167 24 -17 c33 -26 235 -129 252 -129 7 0 19 19 26
44 15 56 1 105 -42 141 -38 32 -47 26 -19 -12 11 -15 22 -40 25 -55 6 -34 -8
-36 -69 -8 l-44 20 14 34 c13 30 13 35 -1 40 -22 8 -20 9 -34 -24 -12 -29 -13
-29 -41 -15 l-28 15 24 55 c14 30 43 91 65 136 37 73 45 109 23 109 -5 0 -46
-75 -92 -167z"/>
<path d="M3454 765 c-8 -19 3 -35 26 -35 19 0 30 17 23 38 -6 17 -42 15 -49
-3z"/>
<path d="M867 669 c-9 -6 -24 -24 -33 -42 -17 -31 -16 -31 16 -58 l33 -28 -38
-66 c-32 -58 -35 -69 -23 -81 12 -13 22 -1 69 88 68 130 72 142 50 170 -21 25
-48 31 -74 17z m43 -55 c0 -14 -21 -19 -33 -7 -9 9 13 34 24 27 5 -3 9 -12 9
-20z"/>
<path d="M3356 663 c-4 -9 0 -23 9 -32 13 -14 17 -14 32 1 13 14 14 20 3 32
-16 21 -36 20 -44 -1z"/>
<path d="M3315 623 c-15 -14 -15 -18 -1 -31 18 -19 46 -9 46 17 0 26 -26 34
-45 14z"/>
<path d="M1565 608 c-61 -270 -67 -289 -88 -286 -17 2 -23 11 -25 36 -7 67
-88 80 -112 17 -26 -69 -25 -75 17 -91 l40 -16 -22 -76 c-23 -79 -23 -92 -1
-92 8 0 22 32 36 79 l22 79 44 -13 c47 -14 42 -19 58 60 3 11 14 63 26 115 12
52 24 108 27 124 2 16 9 39 13 52 5 12 6 25 3 28 -14 13 -33 5 -38 -16z m-159
-239 c3 -6 1 -16 -5 -22 -9 -9 -14 -8 -21 3 -9 15 -4 30 10 30 5 0 12 -5 16
-11z"/>
<path d="M2205 580 c-3 -5 -3 -26 -1 -47 11 -92 19 -191 20 -232 1 -39 -2 -44
-21 -46 -16 -1 -23 4 -24 17 -1 10 -3 23 -4 28 -1 6 -3 14 -4 20 0 5 -8 7 -17
3 -11 -4 -14 -15 -11 -39 4 -25 1 -34 -12 -36 -26 -6 -61 3 -55 14 3 5 3 20 0
33 -8 32 -32 39 -146 44 l-35 1 79 79 c56 57 77 84 74 99 -2 18 -17 7 -96 -69
-58 -56 -95 -101 -98 -117 -6 -28 -6 -28 58 -29 88 -2 128 -11 128 -28 0 -21
-32 -26 -150 -23 l-105 3 3 38 c2 28 -1 37 -13 37 -16 0 -16 -1 -20 -38 -3
-31 -10 -35 -40 -28 -16 4 -25 13 -25 27 0 11 -11 31 -24 44 -43 43 -92 9 -98
-69 -3 -39 -2 -40 35 -49 43 -10 42 -7 21 -134 -6 -39 -5 -43 15 -43 15 0 21
6 22 23 0 21 3 36 14 103 l5 31 63 -10 c63 -9 455 -12 492 -3 11 2 26 5 33 5
12 1 11 44 -3 141 -3 23 -17 134 -21 173 -1 9 -2 30 -3 46 -1 28 -25 49 -36
31z m-561 -268 c2 -4 1 -14 -4 -22 -7 -11 -12 -12 -21 -3 -6 6 -8 16 -5 22 8
13 23 14 30 3z"/>
<path d="M2266 582 c-2 -4 4 -62 14 -127 10 -66 21 -142 24 -170 4 -27 9 -66
12 -85 3 -19 7 -46 9 -60 14 -102 17 -110 36 -110 27 0 29 -25 -37 385 -3 22
-8 47 -9 55 -2 8 -6 39 -10 68 -5 33 -12 52 -21 52 -7 0 -15 -4 -18 -8z"/>
<path d="M1747 503 c-14 -14 -6 -41 13 -46 25 -6 45 24 28 41 -13 13 -31 15
-41 5z"/>
<path d="M2062 443 c-5 -10 -7 -24 -5 -30 6 -16 39 -17 48 -3 5 8 11 7 21 -1
17 -14 44 -5 44 14 0 8 -7 21 -16 28 -14 11 -18 11 -29 -4 -11 -15 -14 -16
-25 -2 -16 20 -27 19 -38 -2z"/>
<path d="M2552 404 c-16 -11 -22 -24 -21 -43 2 -14 0 -31 -3 -36 -9 -15 44
-235 57 -235 29 0 33 22 14 83 -10 34 -19 66 -19 70 0 4 20 16 45 27 l45 19
-20 52 c-10 29 -23 56 -27 60 -19 16 -50 18 -71 3z m45 -39 c7 -20 -2 -29 -21
-22 -9 4 -13 13 -10 22 8 19 23 19 31 0z"/>
<path d="M940 390 c0 -25 25 -36 45 -20 20 16 7 40 -21 40 -17 0 -24 -6 -24
-20z"/>
<path d="M1000 365 c-25 -30 10 -61 38 -33 17 17 15 26 -7 37 -14 8 -22 7 -31
-4z"/>
<path d="M2387 342 c-18 -20 -21 -49 -11 -101 6 -28 9 -30 37 -25 17 2 34 7
39 10 4 3 8 -1 8 -8 0 -7 5 -42 10 -77 9 -66 23 -92 39 -76 12 12 -21 221 -40
261 -17 34 -58 42 -82 16z m49 -33 c3 -6 2 -15 -2 -19 -12 -12 -38 5 -30 19 9
14 23 14 32 0z"/>
<path d="M1105 310 c-10 -17 5 -48 21 -46 22 3 35 28 22 43 -13 16 -34 17 -43
3z"/>
<path d="M1166 281 c-10 -16 5 -41 24 -41 19 0 34 25 24 41 -3 5 -14 9 -24 9
-10 0 -21 -4 -24 -9z"/>
<path d="M1104 235 c-8 -20 4 -35 26 -35 23 0 32 13 24 34 -8 20 -43 21 -50 1z"/>
</g>
</svg>
